<svg width="125" height="132" viewBox="0 0 125 132" fill="none" xmlns="http://www.w3.org/2000/svg">
<path d="M16.2309 13.14C15.7269 12.1693 15.0269 11.4413 14.1309 10.956C13.2349 10.452 12.1989 10.2 11.0229 10.2C9.73488 10.2 8.58688 10.4893 7.57888 11.068C6.57088 11.6467 5.77754 12.468 5.19888 13.532C4.63888 14.596 4.35888 15.828 4.35888 17.228C4.35888 18.628 4.63888 19.8693 5.19888 20.952C5.77754 22.016 6.57088 22.8373 7.57888 23.416C8.58688 23.9947 9.73488 24.284 11.0229 24.284C12.7589 24.284 14.1682 23.7987 15.2509 22.828C16.3335 21.8573 16.9962 20.5413 17.2389 18.88H9.93088V16.332H20.6549V18.824C20.4495 20.336 19.9082 21.7267 19.0309 22.996C18.1722 24.2653 17.0429 25.2827 15.6429 26.048C14.2615 26.7947 12.7215 27.168 11.0229 27.168C9.19354 27.168 7.52288 26.748 6.01088 25.908C4.49888 25.0493 3.29488 23.864 2.39888 22.352C1.52154 20.84 1.08288 19.132 1.08288 17.228C1.08288 15.324 1.52154 13.616 2.39888 12.104C3.29488 10.592 4.49888 9.416 6.01088 8.576C7.54154 7.71733 9.21221 7.288 11.0229 7.288C13.0949 7.288 14.9335 7.80133 16.5389 8.828C18.1629 9.836 19.3389 11.2733 20.0669 13.14H16.2309ZM30.4951 27.252C29.0391 27.252 27.7231 26.9253 26.5471 26.272C25.3711 25.6 24.4471 24.6667 23.7751 23.472C23.1031 22.2587 22.7671 20.8587 22.7671 19.272C22.7671 17.704 23.1125 16.3133 23.8031 15.1C24.4938 13.8867 25.4365 12.9533 26.6311 12.3C27.8258 11.6467 29.1605 11.32 30.6351 11.32C32.1098 11.32 33.4445 11.6467 34.6391 12.3C35.8338 12.9533 36.7765 13.8867 37.4671 15.1C38.1578 16.3133 38.5031 17.704 38.5031 19.272C38.5031 20.84 38.1485 22.2307 37.4391 23.444C36.7298 24.6573 35.7591 25.6 34.5271 26.272C33.3138 26.9253 31.9698 27.252 30.4951 27.252ZM30.4951 24.48C31.3165 24.48 32.0818 24.284 32.7911 23.892C33.5191 23.5 34.1071 22.912 34.5551 22.128C35.0031 21.344 35.2271 20.392 35.2271 19.272C35.2271 18.152 35.0125 17.2093 34.5831 16.444C34.1538 15.66 33.5845 15.072 32.8751 14.68C32.1658 14.288 31.4005 14.092 30.5791 14.092C29.7578 14.092 28.9925 14.288 28.2831 14.68C27.5925 15.072 27.0418 15.66 26.6311 16.444C26.2205 17.2093 26.0151 18.152 26.0151 19.272C26.0151 20.9333 26.4351 22.2213 27.2751 23.136C28.1338 24.032 29.2071 24.48 30.4951 24.48ZM47.868 19.216C47.868 17.6667 48.1854 16.2947 48.82 15.1C49.4734 13.9053 50.3507 12.9813 51.452 12.328C52.572 11.656 53.8134 11.32 55.176 11.32C56.184 11.32 57.1734 11.544 58.144 11.992C59.1334 12.4213 59.9174 13 60.496 13.728V6.28H63.716V27H60.496V24.676C59.9734 25.4227 59.2454 26.0387 58.312 26.524C57.3974 27.0093 56.3427 27.252 55.148 27.252C53.804 27.252 52.572 26.916 51.452 26.244C50.3507 25.5533 49.4734 24.6013 48.82 23.388C48.1854 22.156 47.868 20.7653 47.868 19.216ZM60.496 19.272C60.496 18.208 60.272 17.284 59.824 16.5C59.3947 15.716 58.8254 15.1187 58.116 14.708C57.4067 14.2973 56.6414 14.092 55.82 14.092C54.9987 14.092 54.2334 14.2973 53.524 14.708C52.8147 15.1 52.236 15.688 51.788 16.472C51.3587 17.2373 51.144 18.152 51.144 19.216C51.144 20.28 51.3587 21.2133 51.788 22.016C52.236 22.8187 52.8147 23.4347 53.524 23.864C54.252 24.2747 55.0174 24.48 55.82 24.48C56.6414 24.48 57.4067 24.2747 58.116 23.864C58.8254 23.4533 59.3947 22.856 59.824 22.072C60.272 21.2693 60.496 20.336 60.496 19.272ZM74.6006 27.252C73.1446 27.252 71.8286 26.9253 70.6526 26.272C69.4766 25.6 68.5526 24.6667 67.8806 23.472C67.2086 22.2587 66.8726 20.8587 66.8726 19.272C66.8726 17.704 67.2179 16.3133 67.9086 15.1C68.5993 13.8867 69.5419 12.9533 70.7366 12.3C71.9313 11.6467 73.2659 11.32 74.7406 11.32C76.2153 11.32 77.5499 11.6467 78.7446 12.3C79.9393 12.9533 80.8819 13.8867 81.5726 15.1C82.2633 16.3133 82.6086 17.704 82.6086 19.272C82.6086 20.84 82.2539 22.2307 81.5446 23.444C80.8353 24.6573 79.8646 25.6 78.6326 26.272C77.4193 26.9253 76.0753 27.252 74.6006 27.252ZM74.6006 24.48C75.4219 24.48 76.1873 24.284 76.8966 23.892C77.6246 23.5 78.2126 22.912 78.6606 22.128C79.1086 21.344 79.3326 20.392 79.3326 19.272C79.3326 18.152 79.1179 17.2093 78.6886 16.444C78.2593 15.66 77.6899 15.072 76.9806 14.68C76.2713 14.288 75.5059 14.092 74.6846 14.092C73.8633 14.092 73.0979 14.288 72.3886 14.68C71.6979 15.072 71.1473 15.66 70.7366 16.444C70.3259 17.2093 70.1206 18.152 70.1206 19.272C70.1206 20.9333 70.5406 22.2213 71.3806 23.136C72.2393 24.032 73.3126 24.48 74.6006 24.48ZM106.484 11.572L101.696 27H98.3361L95.2281 15.604L92.1201 27H88.7601L83.9441 11.572H87.1921L90.4121 23.976L93.6881 11.572H97.0201L100.156 23.92L103.348 11.572H106.484ZM116.654 11.32C117.867 11.32 118.95 11.572 119.902 12.076C120.872 12.58 121.628 13.3267 122.17 14.316C122.711 15.3053 122.982 16.5 122.982 17.9V27H119.818V18.376C119.818 16.9947 119.472 15.94 118.782 15.212C118.091 14.4653 117.148 14.092 115.954 14.092C114.759 14.092 113.807 14.4653 113.098 15.212C112.407 15.94 112.062 16.9947 112.062 18.376V27H108.87V11.572H112.062V13.336C112.584 12.7013 113.247 12.2067 114.05 11.852C114.871 11.4973 115.739 11.32 116.654 11.32Z" fill="white"/>
<line x1="62" y1="130" x2="62" y2="55" stroke="white" stroke-width="2.5"/>
<path d="M62 130L47 116.25" stroke="white" stroke-width="2.5" stroke-linecap="round"/>
<path d="M62 130L77 116.25" stroke="white" stroke-width="2.5" stroke-linecap="round"/>
</svg>
