<svg width="84" height="129" viewBox="0 0 84 129" fill="none" xmlns="http://www.w3.org/2000/svg">
<path d="M16.2113 107.14C15.7073 106.169 15.0073 105.441 14.1113 104.956C13.2153 104.452 12.1793 104.2 11.0033 104.2C9.71534 104.2 8.56734 104.489 7.55934 105.068C6.55134 105.647 5.75801 106.468 5.17934 107.532C4.61934 108.596 4.33934 109.828 4.33934 111.228C4.33934 112.628 4.61934 113.869 5.17934 114.952C5.75801 116.016 6.55134 116.837 7.55934 117.416C8.56734 117.995 9.71534 118.284 11.0033 118.284C12.7393 118.284 14.1487 117.799 15.2313 116.828C16.314 115.857 16.9767 114.541 17.2193 112.88H9.91134V110.332H20.6353V112.824C20.43 114.336 19.8887 115.727 19.0113 116.996C18.1527 118.265 17.0233 119.283 15.6233 120.048C14.242 120.795 12.702 121.168 11.0033 121.168C9.17401 121.168 7.50334 120.748 5.99134 119.908C4.47934 119.049 3.27534 117.864 2.37934 116.352C1.50201 114.84 1.06334 113.132 1.06334 111.228C1.06334 109.324 1.50201 107.616 2.37934 106.104C3.27534 104.592 4.47934 103.416 5.99134 102.576C7.52201 101.717 9.19268 101.288 11.0033 101.288C13.0753 101.288 14.914 101.801 16.5193 102.828C18.1433 103.836 19.3193 105.273 20.0473 107.14H16.2113ZM30.4756 121.252C29.0196 121.252 27.7036 120.925 26.5276 120.272C25.3516 119.6 24.4276 118.667 23.7556 117.472C23.0836 116.259 22.7476 114.859 22.7476 113.272C22.7476 111.704 23.0929 110.313 23.7836 109.1C24.4743 107.887 25.4169 106.953 26.6116 106.3C27.8063 105.647 29.1409 105.32 30.6156 105.32C32.0903 105.32 33.4249 105.647 34.6196 106.3C35.8143 106.953 36.7569 107.887 37.4476 109.1C38.1383 110.313 38.4836 111.704 38.4836 113.272C38.4836 114.84 38.1289 116.231 37.4196 117.444C36.7103 118.657 35.7396 119.6 34.5076 120.272C33.2943 120.925 31.9503 121.252 30.4756 121.252ZM30.4756 118.48C31.2969 118.48 32.0623 118.284 32.7716 117.892C33.4996 117.5 34.0876 116.912 34.5356 116.128C34.9836 115.344 35.2076 114.392 35.2076 113.272C35.2076 112.152 34.9929 111.209 34.5636 110.444C34.1343 109.66 33.5649 109.072 32.8556 108.68C32.1463 108.288 31.3809 108.092 30.5596 108.092C29.7383 108.092 28.9729 108.288 28.2636 108.68C27.5729 109.072 27.0223 109.66 26.6116 110.444C26.2009 111.209 25.9956 112.152 25.9956 113.272C25.9956 114.933 26.4156 116.221 27.2556 117.136C28.1143 118.032 29.1876 118.48 30.4756 118.48ZM62.8845 105.572V121H59.6925V119.18C59.1885 119.815 58.5258 120.319 57.7045 120.692C56.9018 121.047 56.0432 121.224 55.1285 121.224C53.9152 121.224 52.8232 120.972 51.8525 120.468C50.9005 119.964 50.1445 119.217 49.5845 118.228C49.0432 117.239 48.7725 116.044 48.7725 114.644V105.572H51.9365V114.168C51.9365 115.549 52.2818 116.613 52.9725 117.36C53.6632 118.088 54.6058 118.452 55.8005 118.452C56.9952 118.452 57.9378 118.088 58.6285 117.36C59.3378 116.613 59.6925 115.549 59.6925 114.168V105.572H62.8845ZM70.2881 107.84C70.8294 107.131 71.5668 106.533 72.5001 106.048C73.4334 105.563 74.4881 105.32 75.6641 105.32C77.0081 105.32 78.2308 105.656 79.3321 106.328C80.4521 106.981 81.3294 107.905 81.9641 109.1C82.5988 110.295 82.9161 111.667 82.9161 113.216C82.9161 114.765 82.5988 116.156 81.9641 117.388C81.3294 118.601 80.4521 119.553 79.3321 120.244C78.2308 120.916 77.0081 121.252 75.6641 121.252C74.4881 121.252 73.4428 121.019 72.5281 120.552C71.6134 120.067 70.8668 119.469 70.2881 118.76V128.336H67.0961V105.572H70.2881V107.84ZM79.6681 113.216C79.6681 112.152 79.4441 111.237 78.9961 110.472C78.5668 109.688 77.9881 109.1 77.2601 108.708C76.5508 108.297 75.7854 108.092 74.9641 108.092C74.1614 108.092 73.3961 108.297 72.6681 108.708C71.9588 109.119 71.3801 109.716 70.9321 110.5C70.5028 111.284 70.2881 112.208 70.2881 113.272C70.2881 114.336 70.5028 115.269 70.9321 116.072C71.3801 116.856 71.9588 117.453 72.6681 117.864C73.3961 118.275 74.1614 118.48 74.9641 118.48C75.7854 118.48 76.5508 118.275 77.2601 117.864C77.9881 117.435 78.5668 116.819 78.9961 116.016C79.4441 115.213 79.6681 114.28 79.6681 113.216Z" fill="white"/>
<line y1="-1.25" x2="75" y2="-1.25" transform="matrix(0 1 1 0 43.25 2)" stroke="white" stroke-width="2.5"/>
<path d="M42 2L27 15.75" stroke="white" stroke-width="2.5" stroke-linecap="round"/>
<path d="M42 2L57 15.75" stroke="white" stroke-width="2.5" stroke-linecap="round"/>
</svg>
