<svg width="64" height="70" viewBox="0 0 64 70" fill="none" xmlns="http://www.w3.org/2000/svg">
<path d="M21.332 57.2756V0.693713L42.6005 7.7832V64.3651L21.332 57.2756Z" fill="white" fill-opacity="0.5" stroke="black"/>
<path d="M21.7686 57.1875V0.557351L0.500099 2.87137V59.5015L21.7686 57.1875Z" fill="white" fill-opacity="0.5" stroke="black"/>
<path d="M63.4316 57.2756V0.693713L42.1632 7.7832V64.3651L63.4316 57.2756Z" fill="white" fill-opacity="0.5" stroke="black"/>
<mask id="path-4-inside-1_201_78" fill="white">
<path fill-rule="evenodd" clip-rule="evenodd" d="M32.1022 56.4491C34.2358 53.9562 35.5244 50.7187 35.5244 47.1802C35.5244 39.3034 29.139 32.918 21.2622 32.918C13.3854 32.918 7 39.3034 7 47.1802C7 50.7135 8.28485 53.9467 10.4128 56.4381L21.2619 69.9995L32.1022 56.4491Z"/>
</mask>
<path fill-rule="evenodd" clip-rule="evenodd" d="M32.1022 56.4491C34.2358 53.9562 35.5244 50.7187 35.5244 47.1802C35.5244 39.3034 29.139 32.918 21.2622 32.918C13.3854 32.918 7 39.3034 7 47.1802C7 50.7135 8.28485 53.9467 10.4128 56.4381L21.2619 69.9995L32.1022 56.4491Z" fill="#E9E9E9"/>
<path d="M32.1022 56.4491L31.3424 55.7989L31.3317 55.8115L31.3213 55.8244L32.1022 56.4491ZM10.4128 56.4381L11.1937 55.8134L11.1836 55.8008L11.1732 55.7886L10.4128 56.4381ZM21.2619 69.9995L20.481 70.6241L21.2619 71.6002L22.0428 70.6241L21.2619 69.9995ZM34.5244 47.1802C34.5244 50.4714 33.3268 53.4803 31.3424 55.7989L32.8619 57.0993C35.1447 54.4322 36.5244 50.966 36.5244 47.1802H34.5244ZM21.2622 33.918C28.5867 33.918 34.5244 39.8557 34.5244 47.1802H36.5244C36.5244 38.7511 29.6913 31.918 21.2622 31.918V33.918ZM8 47.1802C8 39.8557 13.9377 33.918 21.2622 33.918V31.918C12.8331 31.918 6 38.7511 6 47.1802H8ZM11.1732 55.7886C9.19404 53.4714 8 50.4665 8 47.1802H6C6 50.9604 7.37565 54.4219 9.65242 57.0876L11.1732 55.7886ZM22.0428 69.3748L11.1937 55.8134L9.63194 57.0628L20.481 70.6241L22.0428 69.3748ZM31.3213 55.8244L20.481 69.3748L22.0428 70.6241L32.883 57.0738L31.3213 55.8244Z" fill="black" mask="url(#path-4-inside-1_201_78)"/>
<circle cx="21.262" cy="47.1799" r="6.6311" fill="#E9E9E9" stroke="black"/>
</svg>
